<mxfile host="app.diagrams.net" modified="2024-03-21T18:04:52.052Z" agent="Mozilla/5.0 (Windows NT 10.0; Win64; x64) AppleWebKit/537.36 (KHTML, like Gecko) Chrome/122.0.0.0 Safari/537.36" etag="Pa_5J7ECC4XR4BSDQi8z" version="24.0.7" type="github">
  <diagram name="Page-1" id="AgnZkNzD7S1eQuMQv6T4">
    <mxGraphModel dx="1750" dy="870" grid="1" gridSize="10" guides="1" tooltips="1" connect="1" arrows="1" fold="1" page="1" pageScale="1" pageWidth="850" pageHeight="1100" math="0" shadow="0">
      <root>
        <mxCell id="0" />
        <mxCell id="1" parent="0" />
        <mxCell id="CHyMx9moz4sa4TfZuKEh-1" value="" style="rounded=0;whiteSpace=wrap;html=1;" vertex="1" parent="1">
          <mxGeometry width="850" height="60" as="geometry" />
        </mxCell>
        <mxCell id="CHyMx9moz4sa4TfZuKEh-3" value="GIPHY Search API" style="text;strokeColor=none;fillColor=none;html=1;fontSize=24;fontStyle=1;verticalAlign=middle;align=center;" vertex="1" parent="1">
          <mxGeometry x="60" y="10" width="100" height="40" as="geometry" />
        </mxCell>
        <mxCell id="CHyMx9moz4sa4TfZuKEh-4" value="" style="shape=ext;double=1;rounded=0;whiteSpace=wrap;html=1;" vertex="1" parent="1">
          <mxGeometry x="55" y="220" width="160" height="140" as="geometry" />
        </mxCell>
        <mxCell id="CHyMx9moz4sa4TfZuKEh-5" value="" style="rounded=1;whiteSpace=wrap;html=1;" vertex="1" parent="1">
          <mxGeometry x="80" y="120" width="450" height="40" as="geometry" />
        </mxCell>
        <mxCell id="CHyMx9moz4sa4TfZuKEh-6" value="" style="rounded=1;whiteSpace=wrap;html=1;" vertex="1" parent="1">
          <mxGeometry x="550" y="120" width="90" height="40" as="geometry" />
        </mxCell>
        <mxCell id="CHyMx9moz4sa4TfZuKEh-7" value="" style="rounded=1;whiteSpace=wrap;html=1;" vertex="1" parent="1">
          <mxGeometry x="660" y="120" width="100" height="40" as="geometry" />
        </mxCell>
        <mxCell id="CHyMx9moz4sa4TfZuKEh-8" value="Search query" style="text;strokeColor=none;fillColor=none;html=1;fontSize=24;fontStyle=1;verticalAlign=middle;align=center;" vertex="1" parent="1">
          <mxGeometry x="110" y="120" width="100" height="40" as="geometry" />
        </mxCell>
        <mxCell id="CHyMx9moz4sa4TfZuKEh-9" value="# of gifs" style="text;strokeColor=none;fillColor=none;html=1;fontSize=24;fontStyle=1;verticalAlign=middle;align=center;" vertex="1" parent="1">
          <mxGeometry x="545" y="120" width="100" height="40" as="geometry" />
        </mxCell>
        <mxCell id="CHyMx9moz4sa4TfZuKEh-10" value="Search" style="text;strokeColor=none;fillColor=none;html=1;fontSize=24;fontStyle=1;verticalAlign=middle;align=center;" vertex="1" parent="1">
          <mxGeometry x="660" y="120" width="100" height="40" as="geometry" />
        </mxCell>
        <mxCell id="CHyMx9moz4sa4TfZuKEh-11" value="" style="shape=ext;double=1;rounded=0;whiteSpace=wrap;html=1;" vertex="1" parent="1">
          <mxGeometry x="250" y="220" width="160" height="140" as="geometry" />
        </mxCell>
        <mxCell id="CHyMx9moz4sa4TfZuKEh-12" value="" style="shape=ext;double=1;rounded=0;whiteSpace=wrap;html=1;" vertex="1" parent="1">
          <mxGeometry x="445" y="220" width="160" height="140" as="geometry" />
        </mxCell>
        <mxCell id="CHyMx9moz4sa4TfZuKEh-13" value="" style="shape=ext;double=1;rounded=0;whiteSpace=wrap;html=1;" vertex="1" parent="1">
          <mxGeometry x="635" y="220" width="160" height="140" as="geometry" />
        </mxCell>
        <mxCell id="CHyMx9moz4sa4TfZuKEh-14" value="" style="shape=ext;double=1;rounded=0;whiteSpace=wrap;html=1;" vertex="1" parent="1">
          <mxGeometry x="55" y="390" width="160" height="140" as="geometry" />
        </mxCell>
        <mxCell id="CHyMx9moz4sa4TfZuKEh-15" value="" style="shape=ext;double=1;rounded=0;whiteSpace=wrap;html=1;" vertex="1" parent="1">
          <mxGeometry x="250" y="390" width="160" height="140" as="geometry" />
        </mxCell>
        <mxCell id="CHyMx9moz4sa4TfZuKEh-16" value="" style="shape=ext;double=1;rounded=0;whiteSpace=wrap;html=1;" vertex="1" parent="1">
          <mxGeometry x="445" y="390" width="160" height="140" as="geometry" />
        </mxCell>
        <mxCell id="CHyMx9moz4sa4TfZuKEh-17" value="" style="shape=ext;double=1;rounded=0;whiteSpace=wrap;html=1;" vertex="1" parent="1">
          <mxGeometry x="635" y="390" width="160" height="140" as="geometry" />
        </mxCell>
        <mxCell id="CHyMx9moz4sa4TfZuKEh-18" value="" style="shape=ext;double=1;rounded=0;whiteSpace=wrap;html=1;" vertex="1" parent="1">
          <mxGeometry x="55" y="550" width="160" height="140" as="geometry" />
        </mxCell>
        <mxCell id="CHyMx9moz4sa4TfZuKEh-19" value="" style="shape=ext;double=1;rounded=0;whiteSpace=wrap;html=1;" vertex="1" parent="1">
          <mxGeometry x="250" y="550" width="160" height="140" as="geometry" />
        </mxCell>
        <mxCell id="CHyMx9moz4sa4TfZuKEh-20" value="" style="shape=ext;double=1;rounded=0;whiteSpace=wrap;html=1;" vertex="1" parent="1">
          <mxGeometry x="445" y="550" width="160" height="140" as="geometry" />
        </mxCell>
        <mxCell id="CHyMx9moz4sa4TfZuKEh-21" value="" style="shape=ext;double=1;rounded=0;whiteSpace=wrap;html=1;" vertex="1" parent="1">
          <mxGeometry x="635" y="550" width="160" height="140" as="geometry" />
        </mxCell>
        <mxCell id="CHyMx9moz4sa4TfZuKEh-22" value="" style="shape=ext;double=1;rounded=0;whiteSpace=wrap;html=1;" vertex="1" parent="1">
          <mxGeometry x="160" y="710" width="160" height="140" as="geometry" />
        </mxCell>
        <mxCell id="CHyMx9moz4sa4TfZuKEh-23" value="" style="shape=ext;double=1;rounded=0;whiteSpace=wrap;html=1;" vertex="1" parent="1">
          <mxGeometry x="355" y="710" width="160" height="140" as="geometry" />
        </mxCell>
        <mxCell id="CHyMx9moz4sa4TfZuKEh-24" value="" style="shape=ext;double=1;rounded=0;whiteSpace=wrap;html=1;" vertex="1" parent="1">
          <mxGeometry x="550" y="710" width="160" height="140" as="geometry" />
        </mxCell>
        <mxCell id="CHyMx9moz4sa4TfZuKEh-26" value="" style="rounded=0;whiteSpace=wrap;html=1;" vertex="1" parent="1">
          <mxGeometry y="920" width="850" height="180" as="geometry" />
        </mxCell>
        <mxCell id="CHyMx9moz4sa4TfZuKEh-27" value="About" style="text;strokeColor=none;fillColor=none;html=1;fontSize=24;fontStyle=1;verticalAlign=middle;align=center;" vertex="1" parent="1">
          <mxGeometry x="375" y="990" width="100" height="40" as="geometry" />
        </mxCell>
      </root>
    </mxGraphModel>
  </diagram>
</mxfile>
